<?xml version="1.0" encoding="UTF-8" standalone="no"?>
<svg width="219px" height="243px" viewBox="0 0 219 243" version="1.1" xmlns="http://www.w3.org/2000/svg" xmlns:xlink="http://www.w3.org/1999/xlink" xmlns:sketch="http://www.bohemiancoding.com/sketch/ns">
    <!-- Generator: Sketch 3.4 (15588) - http://www.bohemiancoding.com/sketch -->
    <title>Slice 1</title>
    <desc>Created with Sketch.</desc>
    <defs></defs>
    <g id="Page-1" stroke="none" stroke-width="1" fill="none" fill-rule="evenodd" sketch:type="MSPage">
        <path d="M148.54934,104.533444 C149.17707,100.298935 150.597601,96.1092094 152.867912,92.1769145 C162.532895,75.4366727 183.938559,69.7010423 200.678801,79.3660254 C217.419043,89.0310085 223.154674,110.436673 213.48969,127.176915 C203.824707,143.917156 182.419043,149.652787 165.678801,139.987804 C159.818388,136.604292 155.306651,131.781895 152.332197,126.224503 L185.452756,119.040401 C191.389827,117.752605 195.158809,111.895693 193.871013,105.958621 C192.583217,100.02155 186.726305,96.2525683 180.789234,97.5403644 L148.54934,104.533444 Z" id="Oval-7" fill="#D8D8D8" sketch:type="MSShapeGroup"></path>
        <path d="M37.3194102,45.4862047 C34.7574809,45.00714 32.2359343,44.071499 29.8707641,42.6503614 C19.2192544,36.2502887 15.7727838,22.4272501 22.1728565,11.7757404 C28.5729292,1.12423079 42.3959678,-2.32223983 53.0474774,4.07783285 C63.6989871,10.4779055 67.1454577,24.3009442 60.745385,34.9524538 C59.9836532,36.2201884 59.1167708,37.3858595 58.1625998,38.4450134 L53.6868974,24.9331188 C51.7766317,19.1661337 45.5529903,16.039645 39.7860052,17.9499107 C34.0190201,19.8601764 30.8925314,26.0838179 32.8027971,31.8508029 L37.3194102,45.4862047 Z" id="Oval-7" fill="#D8D8D8" sketch:type="MSShapeGroup"></path>
        <path d="M30.758963,188.189161 C20.4231708,187.168582 9.9606501,192.12586 4.42978162,201.705605 C-3.10527305,214.756702 1.3663632,231.445076 14.4174607,238.980131 C27.4685583,246.515185 44.156932,242.043549 51.6919866,228.992452 C57.317198,219.2493 56.2508366,207.47902 49.9188399,199.003284 L37.3764354,220.727364 C34.3388693,225.988583 27.6113748,227.79121 22.350156,224.753644 C17.0889371,221.716078 15.2863104,214.988583 18.3238765,209.727364 L30.7589668,188.189156 Z" id="Oval-7" fill="#D8D8D8" sketch:type="MSShapeGroup"></path>
        <circle id="Oval-6" fill="#D8D8D8" sketch:type="MSShapeGroup" transform="translate(79.500000, 128.500000) rotate(-150.000000) translate(-79.500000, -128.500000) " cx="79.5" cy="128.5" r="66.5"></circle>
    </g>
</svg>