<?xml version="1.0" encoding="UTF-8" standalone="no"?>
<svg width="219px" height="243px" viewBox="0 0 219 243" version="1.1" xmlns="http://www.w3.org/2000/svg" xmlns:xlink="http://www.w3.org/1999/xlink" xmlns:sketch="http://www.bohemiancoding.com/sketch/ns">
    <!-- Generator: Sketch 3.4 (15588) - http://www.bohemiancoding.com/sketch -->
    <title>Slice 1</title>
    <desc>Created with Sketch.</desc>
    <defs></defs>
    <g id="Page-1" stroke="none" stroke-width="1" fill="none" fill-rule="evenodd" sketch:type="MSPage">
        <path d="M148.54934,104.533444 C149.17707,100.298935 150.597601,96.1092094 152.867912,92.1769145 C162.532895,75.4366727 183.938559,69.7010423 200.678801,79.3660254 C217.419043,89.0310085 223.154674,110.436673 213.48969,127.176915 C203.824707,143.917156 182.419043,149.652787 165.678801,139.987804 C159.818388,136.604292 155.306651,131.781895 152.332197,126.224503 L185.452756,119.040401 C191.389827,117.752605 195.158809,111.895693 193.871013,105.958621 C192.583217,100.02155 186.726305,96.2525683 180.789234,97.5403644 L148.54934,104.533444 Z" id="Oval-7" fill="#D8D8D8" sketch:type="MSShapeGroup"></path>
        <path d="M37.3194102,45.4862047 C34.7574809,45.00714 32.2359343,44.071499 29.8707641,42.6503614 C19.2192544,36.2502887 15.7727838,22.4272501 22.1728565,11.7757404 C28.5729292,1.12423079 42.3959678,-2.32223983 53.0474774,4.07783285 C63.6989871,10.4779055 67.1454577,24.3009442 60.745385,34.9524538 C59.9836532,36.2201884 59.1167708,37.3858595 58.1625998,38.4450134 L53.6868974,24.9331188 C51.7766317,19.1661337 45.5529903,16.039645 39.7860052,17.9499107 C34.0190201,19.8601764 30.8925314,26.0838179 32.8027971,31.8508029 L37.3194102,45.4862047 Z" id="Oval-7" fill="#D8D8D8" sketch:type="MSShapeGroup"></path>
        <path d="M30.758963,188.189161 C20.4231708,187.168582 9.9606501,192.12586 4.42978162,201.705605 C-3.10527305,214.756702 1.3663632,231.445076 14.4174607,238.980131 C27.4685583,246.515185 44.156932,242.043549 51.6919866,228.992452 C57.317198,219.2493 56.2508366,207.47902 49.9188399,199.003284 L37.3764354,220.727364 C34.3388693,225.988583 27.6113748,227.79121 22.350156,224.753644 C17.0889371,221.716078 15.2863104,214.988583 18.3238765,209.727364 L30.7589668,188.189156 Z" id="Oval-7" fill="#D8D8D8" sketch:type="MSShapeGroup"></path>
        <path d="M112.75,70.9093106 C80.9435405,52.5458427 40.2727786,63.4435405 21.9093106,95.25 C3.54584272,127.056459 14.4435405,167.727221 46.25,186.090689 C78.0564595,204.454157 118.727221,193.556459 137.090689,161.75 C155.454157,129.943541 144.556459,89.2727786 112.75,70.9093106 Z M99.5125661,137.725179 L127.874557,146.298073 C125.96946,154.251853 122.968977,160.89578 118.873018,166.230051 C114.77706,171.564323 109.692908,175.58878 103.620411,178.303544 C97.5479142,181.018307 89.8204801,182.375668 80.437877,182.375668 C69.0549219,182.375668 59.7558062,180.72064 52.540251,177.410534 C45.3246958,174.100428 39.0975032,168.278062 33.8584862,159.943262 C28.6194692,151.608463 26,140.940079 26,127.937791 C26,110.601408 30.6078845,97.2778352 39.8237916,87.9666732 C49.0396987,78.6555112 62.0775113,74 78.9376205,74 C92.1304178,74 102.501135,76.6670959 110.050082,82.0013677 C117.599029,87.3356396 123.207074,95.5274342 126.874386,106.576997 L98.2980728,112.935227 C97.2978969,109.744189 96.2501092,107.41048 95.1546784,105.93403 C93.3448361,103.457404 91.130194,101.552335 88.5106855,100.218768 C85.891177,98.8851996 82.9621342,98.2184256 79.7234691,98.2184256 C72.3888454,98.2184256 66.7688933,101.171282 62.8634442,107.077083 C59.9105438,111.458806 58.4341157,118.340866 58.4341157,127.723469 C58.4341157,139.344561 60.196304,147.310129 63.7207336,151.620411 C67.2451633,155.930693 72.1983414,158.085802 78.5804166,158.085802 C84.7719821,158.085802 89.4513066,156.347427 92.6185305,152.870625 C95.7857544,149.393823 98.0837433,144.345391 99.5125661,137.725179 Z" id="Oval-6" fill="#D8D8D8" sketch:type="MSShapeGroup"></path>
    </g>
</svg>