<?xml version="1.0" encoding="UTF-8" standalone="no"?>
<svg width="219px" height="243px" viewBox="0 0 219 243" version="1.1" xmlns="http://www.w3.org/2000/svg" xmlns:xlink="http://www.w3.org/1999/xlink" xmlns:sketch="http://www.bohemiancoding.com/sketch/ns">
    <!-- Generator: Sketch 3.4 (15588) - http://www.bohemiancoding.com/sketch -->
    <title>Slice 1</title>
    <desc>Created with Sketch.</desc>
    <defs></defs>
    <g id="Page-1" stroke="none" stroke-width="1" fill="none" fill-rule="evenodd" sketch:type="MSPage">
        <path d="M148.54934,104.533444 C149.17707,100.298935 150.597601,96.1092094 152.867912,92.1769145 C162.532895,75.4366727 183.938559,69.7010423 200.678801,79.3660254 C217.419043,89.0310085 223.154674,110.436673 213.48969,127.176915 C203.824707,143.917156 182.419043,149.652787 165.678801,139.987804 C159.818388,136.604292 155.306651,131.781895 152.332197,126.224503 L185.452756,119.040401 C191.389827,117.752605 195.158809,111.895693 193.871013,105.958621 C192.583217,100.02155 186.726305,96.2525683 180.789234,97.5403644 L148.54934,104.533444 Z" id="Oval-7" fill="#4B4B4B" sketch:type="MSShapeGroup"></path>
        <path d="M37.3194102,45.4862047 C34.7574809,45.00714 32.2359343,44.071499 29.8707641,42.6503614 C19.2192544,36.2502887 15.7727838,22.4272501 22.1728565,11.7757404 C28.5729292,1.12423079 42.3959678,-2.32223983 53.0474774,4.07783285 C63.6989871,10.4779055 67.1454577,24.3009442 60.745385,34.9524538 C59.9836532,36.2201884 59.1167708,37.3858595 58.1625998,38.4450134 L53.6868974,24.9331188 C51.7766317,19.1661337 45.5529903,16.039645 39.7860052,17.9499107 C34.0190201,19.8601764 30.8925314,26.0838179 32.8027971,31.8508029 L37.3194102,45.4862047 Z" id="Oval-7" fill="#4B4B4B" sketch:type="MSShapeGroup"></path>
        <path d="M30.758963,188.189161 C20.4231708,187.168582 9.9606501,192.12586 4.42978162,201.705605 C-3.10527305,214.756702 1.3663632,231.445076 14.4174607,238.980131 C27.4685583,246.515185 44.156932,242.043549 51.6919866,228.992452 C57.317198,219.2493 56.2508366,207.47902 49.9188399,199.003284 L37.3764354,220.727364 C34.3388693,225.988583 27.6113748,227.79121 22.350156,224.753644 C17.0889371,221.716078 15.2863104,214.988583 18.3238765,209.727364 L30.7589668,188.189156 Z" id="Oval-7" fill="#4B4B4B" sketch:type="MSShapeGroup"></path>
        <path d="M112.75,70.9093106 C80.9435405,52.5458427 40.2727786,63.4435405 21.9093106,95.25 C3.54584272,127.056459 14.4435405,167.727221 46.25,186.090689 C78.0564595,204.454157 118.727221,193.556459 137.090689,161.75 C155.454157,129.943541 144.556459,89.2727786 112.75,70.9093106 Z M100.31294,103.003465 C97.9811312,100.164742 95.1171045,97.9850399 91.7207742,96.4642949 C88.3244438,94.94355 84.3959117,94.1831889 79.9350599,94.1831889 C75.4742081,94.1831889 71.342913,95.0449315 67.5410507,96.7684424 C63.7391884,98.4919533 60.4442904,100.899763 57.6562581,103.991945 C54.8682257,107.084126 52.688524,110.759205 51.1170876,115.01729 C49.5456511,119.275376 48.7599447,123.888233 48.7599447,128.856 C48.7599447,133.92515 49.5456511,138.563352 51.1170876,142.770747 C52.688524,146.978141 54.8428803,150.627874 57.5802212,153.720055 C60.3175621,156.812237 63.5364239,159.220047 67.2369032,160.943558 C70.9373826,162.667069 74.9166054,163.528811 79.1746912,163.528811 C84.041075,163.528811 88.3497877,162.514996 92.1009585,160.487336 C95.8521294,158.459676 98.9442643,155.620995 101.377456,151.971207 L121.147041,166.722359 C116.584807,173.109488 110.806063,177.823727 103.810636,180.865217 C96.8152093,183.906706 89.6171246,185.427429 82.2161659,185.427429 C73.8013773,185.427429 66.0456945,184.109469 58.9488848,181.473512 C51.8520751,178.837554 45.7184959,175.061094 40.5479631,170.144018 C35.3774304,165.226943 31.3475168,159.270782 28.4581014,152.275355 C25.568686,145.279928 24.124,137.473555 24.124,128.856 C24.124,120.238445 25.568686,112.432072 28.4581014,105.436645 C31.3475168,98.4412185 35.3774304,92.4850568 40.5479631,87.5679816 C45.7184959,82.6509063 51.8520751,78.8744464 58.9488848,76.2384885 C66.0456945,73.6025306 73.8013773,72.2845714 82.2161659,72.2845714 C85.2576558,72.2845714 88.4258268,72.5633705 91.7207742,73.120977 C95.0157215,73.6785834 98.2599287,74.5656713 101.453493,75.7822673 C104.647057,76.9988632 107.713847,78.6209668 110.653954,80.6486267 C113.594061,82.6762866 116.229979,85.1601328 118.561788,88.1002396 L100.31294,103.003465 Z" id="Oval-6" fill="#4B4B4B" sketch:type="MSShapeGroup"></path>
    </g>
</svg>